<svg clip-rule="evenodd" fill-rule="evenodd" stroke-linecap="round" stroke-linejoin="round" stroke-miterlimit="2" viewBox="0 0 2336 2374" xmlns="http://www.w3.org/2000/svg"><g fill="none" opacity=".13" stroke-width="5" transform="matrix(4.16667 0 0 4.16667 -160.32510326 -115.92923441)"><g stroke="#e2e8f0"><g><path d="m361.203 143.119 15.687 5.315 2.129-16.373 2.141-16.378-17.817 11.066-17.824 11.059z"/><path d="m324.548 505.066-14.652-7.72-4.683 15.833-4.693 15.837 19.335-8.12 19.346-8.114z"/><path d="m278.726 300.197c0 8.789-7.126 15.913-15.913 15.913-8.79 0-15.915-7.124-15.915-15.913s7.125-15.913 15.915-15.913c8.787 0 15.913 7.124 15.913 15.913z"/><path d="m436.798 183.232c0 5.776-4.685 10.459-10.459 10.459-5.777 0-10.461-4.683-10.461-10.459s4.684-10.46 10.461-10.46c5.774 0 10.459 4.684 10.459 10.46z"/><path d="m354.466 381.49c-.031-.071-.052-.146-.086-.218-3.588-8.022-13.002-11.616-21.023-8.027-8.024 3.589-11.617 13.001-8.029 21.024.033.071.074.137.107.208z"/><path d="m48.309 256.892 18.11 7.33-7.331 18.11-18.11-7.329z"/><path d="m401.767 81.598 29.729 22.957"/></g><g><path d="m328.216 267.423 10.852 3.674 10.855 3.679 1.473-11.329 1.48-11.333"/><path d="m275.679 47.48c-.014.077-.038.151-.051.229-1.543 8.652 4.223 16.916 12.874 18.457 8.653 1.543 16.916-4.221 18.46-12.873.013-.078.015-.154.028-.232z"/><path d="m476.855 573.144c-.008.076-.027.152-.037.231-.928 8.74 5.406 16.576 14.144 17.503 8.741.93 16.577-5.402 17.506-14.142.008-.078.006-.156.014-.233"/><path d="m555.068 249.343 29.762 10.772-10.772 29.765-29.764-10.771z"/><path d="m459.181 453.37 18.018 7.554-7.555 18.018-18.018-7.554z"/><path d="m91.428 514.699 17.186-9.294 9.293 17.185-17.184 9.294z"/><path d="m153.842 147.908h37.562"/><path d="m144.33 343.879h37.563"/><path d="m571.761 478.488-14.398 34.693"/></g><g><path d="m202.018 507.314-3.674 10.853-3.678 10.854 11.328 1.474 11.334 1.48"/><path d="m578.201 110.369c0 5.776-4.686 10.459-10.459 10.459-5.778 0-10.461-4.683-10.461-10.459 0-5.777 4.683-10.46 10.461-10.46 5.773 0 10.459 4.683 10.459 10.46z"/><path d="m76.502 379.903c.014-.076.037-.151.05-.229 1.458-8.667-4.387-16.875-13.054-18.332-8.667-1.458-16.873 4.387-18.333 13.054-.012.077-.014.155-.026.232z"/><path d="m209.671 192.267 29.763 10.772-10.773 29.765-29.763-10.771z"/><path d="m564.96 343.933 17.186-9.293 9.293 17.186-17.184 9.294z"/><path d="m407.087 405.96h37.563"/><path d="m126.552 467.115 29.729 22.958"/><path d="m418.628 248.627-23.082 29.634"/></g></g><g stroke="#ffc863"><path d="m596.447 568.027c0 8.789-7.125 15.913-15.912 15.913-8.789 0-15.914-7.124-15.914-15.913s7.125-15.913 15.914-15.913c8.787 0 15.912 7.124 15.912 15.913z"/><path d="m479.373 320.394c0 5.776-4.686 10.459-10.459 10.459-5.778 0-10.461-4.683-10.461-10.459s4.683-10.46 10.461-10.46c5.773 0 10.459 4.684 10.459 10.46z"/><path d="m257.358 583.941c0 5.776-4.684 10.459-10.459 10.459-5.777 0-10.46-4.683-10.46-10.459s4.683-10.46 10.46-10.46c5.775 0 10.459 4.684 10.459 10.46z"/><path d="m278.277 121.599c0 5.777-4.684 10.459-10.459 10.459-5.778 0-10.46-4.682-10.46-10.459 0-5.776 4.682-10.46 10.46-10.46 5.775 0 10.459 4.684 10.459 10.46z"/><path d="m136.075 228.551c0 5.777-4.684 10.459-10.459 10.459-5.777 0-10.46-4.682-10.46-10.459 0-5.776 4.683-10.46 10.46-10.46 5.775 0 10.459 4.684 10.459 10.46z"/><path d="m455.666 69.284 17.185-9.293 9.293 17.186-17.184 9.294z"/><path d="m237.151 373.122 17.186-9.293 9.293 17.185-17.185 9.294z"/><path d="m345.888 451.236 15.201-10.654 10.159 15.115"/><path d="m371.248 455.697 15.203-10.654 10.158 15.115"/><path d="m72.898 467.115-.963-11.416-.961-11.421-10.974 3.171-10.983 3.166"/><path d="m86.669 52.97-10.851-3.674-10.856-3.678-1.472 11.328-1.481 11.334"/></g><g stroke="#5864fb"><path d="m356.529 60.02 6.066-17.545 17.092 6.286"/><path d="m379.687 48.761 6.064-17.545 17.094 6.286"/><path d="m420.392 547.953 7.961-16.772 16.297 8.129"/><path d="m444.65 539.31 7.959-16.77 16.297 8.127"/><path d="m468.906 530.667 7.959-16.771 16.297 8.129"/><path d="m493.162 522.025 7.959-16.772 16.296 8.129"/><path d="m174.623 407.921c6.768 1.391 3.135 13.155 11.773 14.93"/><path d="m146.145 402.071c6.769 1.39 3.135 13.154 11.772 14.929"/><path d="m174.623 407.921c-6.769-1.39-8.07 10.853-16.706 9.079"/><path d="m146.145 402.071c-6.769-1.391-8.068 10.852-16.707 9.078"/><path d="m126.618 424.879 56.956 11.703"/><path d="m300.188 202.47c-6.768-1.39-3.135-13.154-11.774-14.929"/><path d="m328.666 208.322c-6.77-1.391-3.137-13.154-11.773-14.93"/><path d="m300.188 202.47c6.769 1.391 8.07-10.851 16.705-9.078"/><path d="m328.666 208.322c6.767 1.39 8.066-10.854 16.705-9.078"/><path d="m348.191 185.513-56.955-11.703"/><path d="m526.769 153.927c5.047 4.723-4.197 12.855 2.242 18.881"/><path d="m505.541 134.064c5.046 4.721-4.194 12.855 2.242 18.878"/><path d="m526.769 153.927c-5.045-4.72-12.55 5.038-18.986-.985"/><path d="m505.541 134.064c-5.045-4.723-12.547 5.04-18.987-.984"/><path d="m569.226 193.656c5.047 4.721-4.195 12.854 2.244 18.881"/><path d="m548 173.792c5.046 4.722-4.196 12.854 2.242 18.879"/><path d="m569.226 193.656c-5.043-4.722-12.547 5.039-18.984-.985"/><path d="m548 173.792c-5.047-4.721-12.549 5.042-18.989-.984"/><path d="m110.391 84.155 15.202-10.654 10.158 15.115"/><path d="m135.751 88.616 15.202-10.654 10.158 15.115"/><path d="m161.111 93.077 15.203-10.654 10.159 15.115"/><path d="m186.473 97.538 15.201-10.654 10.158 15.115"/><path d="m396.609 334.187c-.012-.077-.012-.154-.024-.232-1.3-8.693-9.402-14.684-18.091-13.384-8.694 1.3-14.686 9.399-13.385 18.093.012.078.033.152.045.228"/><path d="m177.707 588.38c-.011-.077-.011-.154-.023-.232-1.339-8.687-9.466-14.643-18.152-13.304s-14.642 9.465-13.304 18.152c.011.078.034.151.046.228"/><path d="m521.417 396.018 4.745-15.868-16.44-1.536-16.445-1.545 11.703 17.403 11.699 17.413z"/></g><g stroke="#36d7e0"><path d="m77.903 571.509-13.93-8.96-6.036 15.368-6.048 15.372 19.966-6.416 19.977-6.409z"/><path d="m262.813 455.697c0 5.776-4.686 10.459-10.459 10.459-5.778 0-10.46-4.683-10.46-10.459 0-5.777 4.682-10.46 10.46-10.46 5.773 0 10.459 4.683 10.459 10.46z"/><path d="m588.66 428.879c0 5.777-4.684 10.459-10.459 10.459-5.778 0-10.459-4.682-10.459-10.459 0-5.776 4.681-10.46 10.459-10.46 5.775 0 10.459 4.684 10.459 10.46z"/><path d="m188.969 40.783c0 5.777-4.685 10.459-10.459 10.459-5.778 0-10.46-4.682-10.46-10.459 0-5.776 4.682-10.46 10.46-10.46 5.774 0 10.459 4.684 10.459 10.46z"/><path d="m557.699 62.13c.025-.073.062-.142.088-.217 2.879-8.304-1.52-17.369-9.823-20.248-8.302-2.879-17.369 1.517-20.248 9.821-.027.075-.041.15-.066.224"/><path d="m355.978 554.388 29.762 10.772-10.772 29.765-29.763-10.771z"/><path d="m134.889 289.617c6.709-1.66 8.495 10.521 17.055 8.403"/><path d="m106.668 296.601c6.708-1.661 8.496 10.52 17.053 8.402"/><path d="m134.889 289.617c-6.707 1.66-2.61 13.268-11.168 15.386"/><path d="m106.668 296.601c-6.708 1.659-2.607 13.269-11.168 15.387"/><path d="m191.333 275.649c6.708-1.66 8.495 10.52 17.056 8.403"/><path d="m163.111 282.632c6.709-1.66 8.496 10.521 17.055 8.403"/><path d="m191.333 275.649c-6.708 1.659-2.609 13.269-11.167 15.386"/><path d="m163.111 282.632c-6.707 1.661-2.606 13.27-11.167 15.388"/><path d="m504.861 219.187-7.453 17.002-16.533-7.638"/><path d="m480.875 228.551-7.454 17.002-16.533-7.636"/><path d="m500.072 206.917-47.395 18.503"/><path d="m52.561 176.31 2.463-18.4 18 2.769"/><path d="m73.024 160.679 2.463-18.4 18 2.768"/><path d="m60.557 186.777 40.432-30.885"/></g></g></svg>